<svg width="18" height="22" viewBox="0 0 18 22" xmlns="http://www.w3.org/2000/svg">
<path d="M8.99948 17.1546C12.8289 17.1546 16.1784 18.7458 18 21.12L16.0738 22C14.5909 20.3027 11.9766 19.1752 8.99948 19.1752C6.02231 19.1752 3.40801 20.3027 1.92517 22L0 21.119C1.82165 18.7448 5.17005 17.1546 8.99948 17.1546ZM8.99948 0C10.3862 0 11.7161 0.532213 12.6967 1.47956C13.6772 2.4269 14.2281 3.71178 14.2281 5.05153V10.0824C14.228 11.3842 13.7078 12.6356 12.7759 13.5759C11.8441 14.5161 10.5725 15.0724 9.2264 15.1289L8.99948 15.134C7.61276 15.134 6.28285 14.6018 5.30229 13.6544C4.32174 12.7071 3.77087 11.4222 3.77087 10.0824V5.05153C3.77095 3.74978 4.29116 2.49832 5.22302 1.55812C6.15488 0.61791 7.42645 0.0615472 8.77255 0.00505161L8.99948 0ZM8.99948 2.02061C8.19928 2.02057 7.42931 2.31595 6.84711 2.84632C6.26491 3.37668 5.91449 4.10195 5.86754 4.87371L5.86231 5.05153V10.0824C5.86153 10.8714 6.17919 11.6295 6.7478 12.1958C7.31641 12.7621 8.09116 13.0918 8.90741 13.115C9.72367 13.1381 10.5171 12.8529 11.1191 12.3198C11.7211 11.7867 12.0843 11.0479 12.1314 10.2603L12.1366 10.0824V5.05153C12.1366 4.24768 11.8061 3.47675 11.2178 2.90834C10.6295 2.33994 9.8315 2.02061 8.99948 2.02061Z"/>
</svg>
